<?xml version="1.0" encoding="UTF-8"?>
<svg id="Layer_2" data-name="Layer 2" xmlns="http://www.w3.org/2000/svg" viewBox="0 0 547.8 242.33">
  <defs>
    <style>
      .cls-1 {
        fill: #f2f2f2;
        stroke-width: 0px;
      }
    </style>
  </defs>
  <g id="Layer_1-2" data-name="Layer 1">
    <g>
      <path class="cls-1" d="M251.34,242.33h-56l1.93-178.29-.64-.64-50.85,178.93h-40.23L54.71,63.4l-.64.64,1.93,178.29H0V4.18h78.2l47.31,156.73h.64L172.82,4.18h78.52v238.15Z"/>
      <path class="cls-1" d="M415.09,56c0,16.31-4.13,30.31-12.39,42-8.26,11.7-20.33,24.41-36.21,38.14l-113.92,97.51h130.98l-1.61,8.69h-143.85l1.61-8.69,121.65-104.59c14.16-12.01,25.05-23.44,32.67-34.27,7.61-10.83,11.42-23.33,11.42-37.49s-4.67-26.6-14-35.4c-9.33-8.79-21.4-13.19-36.21-13.19-18.88,0-34.81,6.55-47.79,19.63-12.98,13.09-21.4,29.29-25.26,48.59h-9.65c4.51-21.88,14.48-40.17,29.93-54.87,15.45-14.69,34-22.04,55.67-22.04,16.73,0,30.41,5.15,41.03,15.45,10.62,10.3,15.93,23.81,15.93,40.55Z"/>
      <path class="cls-1" d="M547.8,4.18l-33.79,183.12h24.14l-1.61,8.69h-24.14l-8.69,46.34h-9.65l8.69-46.34h-124.54l1.61-8.37L534.61,4.18h13.19ZM535.9,15.77h-.64l-144.17,171.53h113.28l31.54-171.53Z"/>
    </g>
  </g>
</svg>