<?xml version="1.0" encoding="UTF-8"?>
<svg id="Layer_2" data-name="Layer 2" xmlns="http://www.w3.org/2000/svg" viewBox="0 0 1564.8 247.16">
  <defs>
    <style>
      .cls-1 {
        fill: #f2f2f2;
        stroke-width: 0px;
      }
    </style>
  </defs>
  <g id="Layer_1-2" data-name="Layer 1">
    <g>
      <path class="cls-1" d="M251.34,242.65h-56l1.93-178.29-.64-.64-50.85,178.93h-40.23L54.71,63.72l-.64.64,1.93,178.29H0V4.51h78.2l47.31,156.73h.64L172.82,4.51h78.52v238.15Z"/>
      <path class="cls-1" d="M516.2,123.58c0,34.97-12.23,64.31-36.69,88.02-24.46,23.71-54.28,35.56-89.47,35.56s-63.51-11.64-88.18-34.92c-24.67-23.28-37.01-51.86-37.01-85.77,0-18.02,3.11-34.97,9.33-50.85,3.22-8.58,8.37-17.48,15.45-26.71C314.52,16.31,348.1,0,390.37,0c34.97,0,64.69,11.91,89.14,35.72,24.46,23.81,36.69,53.1,36.69,87.86ZM455.37,123.9c0-19.09-6.06-35.61-18.18-49.56-12.12-13.94-27.63-20.92-46.5-20.92s-34.71,6.81-46.82,20.44c-12.12,13.63-18.18,29.98-18.18,49.08s6.11,36.21,18.34,50.04c12.23,13.84,28,20.76,47.31,20.76s34-6.92,46.02-20.76c12.01-13.84,18.02-30.2,18.02-49.08Z"/>
      <path class="cls-1" d="M661.02,57.93h-46.66v184.72h-60.82V57.93h-46.99V4.51h154.47v53.42Z"/>
      <path class="cls-1" d="M739.99,242.65h-60.82V4.51h60.82v238.15Z"/>
      <path class="cls-1" d="M1004.84,123.58c0,34.97-12.23,64.31-36.69,88.02-24.46,23.71-54.28,35.56-89.47,35.56s-63.51-11.64-88.18-34.92c-24.67-23.28-37.01-51.86-37.01-85.77,0-18.02,3.11-34.97,9.33-50.85,3.22-8.58,8.37-17.48,15.45-26.71C803.17,16.31,836.74,0,879.01,0c34.97,0,64.69,11.91,89.14,35.72,24.46,23.81,36.69,53.1,36.69,87.86ZM944.02,123.9c0-19.09-6.06-35.61-18.18-49.56-12.12-13.94-27.63-20.92-46.5-20.92s-34.71,6.81-46.83,20.44c-12.12,13.63-18.18,29.98-18.18,49.08s6.11,36.21,18.34,50.04c12.23,13.84,28,20.76,47.31,20.76s34-6.92,46.02-20.76c12.01-13.84,18.02-30.2,18.02-49.08Z"/>
      <path class="cls-1" d="M1219.18,242.65h-52.78l-90.75-144.82-.64.32,1.61,144.5h-58.25V4.51h52.46l92.04,149.65.64-.64-2.58-149h58.25v238.15Z"/>
      <path class="cls-1" d="M1417.09,56.32c0,16.31-4.13,30.31-12.39,42-8.26,11.7-20.33,24.41-36.21,38.14l-113.92,97.51h130.98l-1.61,8.69h-143.85l1.61-8.69,121.65-104.59c14.16-12.01,25.05-23.44,32.67-34.27,7.61-10.83,11.42-23.33,11.42-37.49s-4.67-26.6-14-35.4c-9.33-8.79-21.4-13.19-36.21-13.19-18.88,0-34.81,6.55-47.79,19.63-12.98,13.09-21.4,29.29-25.26,48.59h-9.65c4.51-21.88,14.48-40.17,29.93-54.87,15.45-14.69,34-22.04,55.67-22.04,16.73,0,30.41,5.15,41.03,15.45,10.62,10.3,15.93,23.81,15.93,40.55Z"/>
      <path class="cls-1" d="M1564.8,4.51l-33.79,183.12h24.14l-1.61,8.69h-24.14l-8.69,46.34h-9.65l8.69-46.34h-124.54l1.61-8.37L1551.61,4.51h13.19ZM1552.9,16.09h-.64l-144.17,171.53h113.28l31.54-171.53Z"/>
    </g>
  </g>
</svg>