<?xml version="1.0" encoding="UTF-8"?>
<svg id="Layer_2" data-name="Layer 2" xmlns="http://www.w3.org/2000/svg" viewBox="0 0 256 256">
  <defs>
    <style>
      .cls-1 {
        fill: #191919;
      }

      .cls-1, .cls-2, .cls-3 {
        stroke-width: 0px;
      }

      .cls-2 {
        fill: #000;
      }

      .cls-3 {
        fill: #fff;
      }
    </style>
  </defs>
  <g id="Layer_1-2" data-name="Layer 1">
    <g>
      <path class="cls-3" d="M128,254.5C58.25,254.5,1.5,197.75,1.5,128S58.25,1.5,128,1.5s126.5,56.75,126.5,126.5-56.75,126.5-126.5,126.5Z"/>
      <path class="cls-2" d="M128,3c33.39,0,64.78,13,88.39,36.61,23.61,23.61,36.61,55,36.61,88.39s-13,64.78-36.61,88.39c-23.61,23.61-55,36.61-88.39,36.61s-64.78-13-88.39-36.61C16,192.78,3,161.39,3,128S16,63.22,39.61,39.61C63.22,16,94.61,3,128,3M128,0C57.31,0,0,57.31,0,128s57.31,128,128,128,128-57.31,128-128S198.69,0,128,0h0Z"/>
    </g>
    <g>
      <path class="cls-1" d="M120.49,167.46h-18.24l.63-58.07-.21-.21-16.56,58.28h-13.1l-16.56-58.28-.21.21.63,58.07h-18.24v-77.56h25.47l15.41,51.05h.21l15.2-51.05h25.58v77.56Z"/>
      <path class="cls-1" d="M173.82,106.77c0,5.31-1.35,9.87-4.04,13.68-2.69,3.81-6.62,7.95-11.79,12.42l-37.11,31.76h42.66l-.52,2.83h-46.85l.52-2.83,39.62-34.07c4.61-3.91,8.16-7.63,10.64-11.16,2.48-3.53,3.72-7.6,3.72-12.21s-1.52-8.66-4.56-11.53c-3.04-2.86-6.97-4.3-11.79-4.3-6.15,0-11.34,2.13-15.57,6.39-4.23,4.26-6.97,9.54-8.23,15.83h-3.14c1.47-7.13,4.72-13.08,9.75-17.87,5.03-4.79,11.07-7.18,18.13-7.18,5.45,0,9.91,1.68,13.36,5.03,3.46,3.35,5.19,7.76,5.19,13.21Z"/>
      <path class="cls-1" d="M217.05,89.9l-11.01,59.64h7.86l-.52,2.83h-7.86l-2.83,15.09h-3.14l2.83-15.09h-40.56l.52-2.73,50.42-59.75h4.3ZM213.17,93.67h-.21l-46.96,55.87h36.9l10.27-55.87Z"/>
    </g>
  </g>
</svg>